<mxfile host="app.diagrams.net" agent="Mozilla/5.0 (Macintosh; Intel Mac OS X 10_15_7) AppleWebKit/605.1.15 (KHTML, like Gecko) Version/17.6 Safari/605.1.15" version="24.7.7">
  <diagram name="Page-1" id="hErmc-WL8wf_wudPl1U5">
    <mxGraphModel dx="2739" dy="2241" grid="1" gridSize="10" guides="1" tooltips="1" connect="1" arrows="1" fold="1" page="1" pageScale="1" pageWidth="827" pageHeight="1169" math="0" shadow="0">
      <root>
        <mxCell id="0" />
        <mxCell id="1" parent="0" />
        <mxCell id="xgTr8H7QCqZXY7w2fLcb-1" value="" style="outlineConnect=0;dashed=0;verticalLabelPosition=bottom;verticalAlign=top;align=center;html=1;shape=mxgraph.aws3.s3;fillColor=#E05243;gradientColor=none;" parent="1" vertex="1">
          <mxGeometry x="685" y="290" width="76.5" height="93" as="geometry" />
        </mxCell>
        <mxCell id="xgTr8H7QCqZXY7w2fLcb-2" value="" style="outlineConnect=0;dashed=0;verticalLabelPosition=bottom;verticalAlign=top;align=center;html=1;shape=mxgraph.aws3.glue;fillColor=#F58534;gradientColor=none;" parent="1" vertex="1">
          <mxGeometry x="491.5" y="470" width="82.5" height="99" as="geometry" />
        </mxCell>
        <mxCell id="xgTr8H7QCqZXY7w2fLcb-3" value="" style="sketch=0;outlineConnect=0;fontColor=#232F3E;gradientColor=none;fillColor=#8C4FFF;strokeColor=none;dashed=0;verticalLabelPosition=bottom;verticalAlign=top;align=center;html=1;fontSize=12;fontStyle=0;aspect=fixed;pointerEvents=1;shape=mxgraph.aws4.glue_data_catalog;" parent="1" vertex="1">
          <mxGeometry x="685" y="78" width="72" height="78" as="geometry" />
        </mxCell>
        <mxCell id="xgTr8H7QCqZXY7w2fLcb-4" value="" style="outlineConnect=0;dashed=0;verticalLabelPosition=bottom;verticalAlign=top;align=center;html=1;shape=mxgraph.aws3.lambda;fillColor=#F58534;gradientColor=none;" parent="1" vertex="1">
          <mxGeometry x="415" y="290" width="76.5" height="93" as="geometry" />
        </mxCell>
        <mxCell id="xgTr8H7QCqZXY7w2fLcb-5" value="" style="sketch=0;points=[[0,0,0],[0.25,0,0],[0.5,0,0],[0.75,0,0],[1,0,0],[0,1,0],[0.25,1,0],[0.5,1,0],[0.75,1,0],[1,1,0],[0,0.25,0],[0,0.5,0],[0,0.75,0],[1,0.25,0],[1,0.5,0],[1,0.75,0]];points=[[0,0,0],[0.25,0,0],[0.5,0,0],[0.75,0,0],[1,0,0],[0,1,0],[0.25,1,0],[0.5,1,0],[0.75,1,0],[1,1,0],[0,0.25,0],[0,0.5,0],[0,0.75,0],[1,0.25,0],[1,0.5,0],[1,0.75,0]];outlineConnect=0;fontColor=#232F3E;fillColor=#E7157B;strokeColor=#ffffff;dashed=0;verticalLabelPosition=bottom;verticalAlign=top;align=center;html=1;fontSize=12;fontStyle=0;aspect=fixed;shape=mxgraph.aws4.resourceIcon;resIcon=mxgraph.aws4.cloudwatch_2;" parent="1" vertex="1">
          <mxGeometry x="471" y="-140" width="78" height="78" as="geometry" />
        </mxCell>
        <mxCell id="xgTr8H7QCqZXY7w2fLcb-6" value="" style="outlineConnect=0;dashed=0;verticalLabelPosition=bottom;verticalAlign=top;align=center;html=1;shape=mxgraph.aws3.athena;fillColor=#F58534;gradientColor=none;" parent="1" vertex="1">
          <mxGeometry x="1228" y="338" width="80" height="86.5" as="geometry" />
        </mxCell>
        <mxCell id="xgTr8H7QCqZXY7w2fLcb-9" value="s3" style="text;html=1;align=center;verticalAlign=middle;resizable=0;points=[];autosize=1;strokeColor=none;fillColor=none;" parent="1" vertex="1">
          <mxGeometry x="663.25" y="361" width="40" height="30" as="geometry" />
        </mxCell>
        <mxCell id="xgTr8H7QCqZXY7w2fLcb-10" value="Glue" style="text;html=1;align=center;verticalAlign=middle;resizable=0;points=[];autosize=1;strokeColor=none;fillColor=none;" parent="1" vertex="1">
          <mxGeometry x="510" y="560" width="50" height="30" as="geometry" />
        </mxCell>
        <mxCell id="xgTr8H7QCqZXY7w2fLcb-11" value="CloudWatch" style="text;html=1;align=center;verticalAlign=middle;resizable=0;points=[];autosize=1;strokeColor=none;fillColor=none;" parent="1" vertex="1">
          <mxGeometry x="465" y="-170" width="90" height="30" as="geometry" />
        </mxCell>
        <mxCell id="xgTr8H7QCqZXY7w2fLcb-12" value="Athena" style="text;html=1;align=center;verticalAlign=middle;resizable=0;points=[];autosize=1;strokeColor=none;fillColor=none;" parent="1" vertex="1">
          <mxGeometry x="1238" y="424.5" width="60" height="30" as="geometry" />
        </mxCell>
        <mxCell id="xgTr8H7QCqZXY7w2fLcb-13" value="Glue Data Catalog" style="text;html=1;align=center;verticalAlign=middle;resizable=0;points=[];autosize=1;strokeColor=none;fillColor=none;" parent="1" vertex="1">
          <mxGeometry x="663.25" y="48" width="120" height="30" as="geometry" />
        </mxCell>
        <mxCell id="xgTr8H7QCqZXY7w2fLcb-14" value="" style="outlineConnect=0;dashed=0;verticalLabelPosition=bottom;verticalAlign=top;align=center;html=1;shape=mxgraph.aws3.iam;fillColor=#759C3E;gradientColor=none;" parent="1" vertex="1">
          <mxGeometry x="736.5" y="-120" width="46.75" height="80" as="geometry" />
        </mxCell>
        <mxCell id="xgTr8H7QCqZXY7w2fLcb-15" value="IAM" style="text;html=1;align=center;verticalAlign=middle;resizable=0;points=[];autosize=1;strokeColor=none;fillColor=none;" parent="1" vertex="1">
          <mxGeometry x="739.88" y="-150" width="40" height="30" as="geometry" />
        </mxCell>
        <mxCell id="xgTr8H7QCqZXY7w2fLcb-16" value="Lambda" style="text;html=1;align=center;verticalAlign=middle;resizable=0;points=[];autosize=1;strokeColor=none;fillColor=none;" parent="1" vertex="1">
          <mxGeometry x="415" y="260" width="70" height="30" as="geometry" />
        </mxCell>
        <mxCell id="xgTr8H7QCqZXY7w2fLcb-17" value="" style="rounded=1;whiteSpace=wrap;html=1;fillColor=none;" parent="1" vertex="1">
          <mxGeometry x="10" y="30" width="1000" height="700" as="geometry" />
        </mxCell>
        <mxCell id="xgTr8H7QCqZXY7w2fLcb-18" value="" style="dashed=0;outlineConnect=0;html=1;align=center;labelPosition=center;verticalLabelPosition=bottom;verticalAlign=top;shape=mxgraph.weblogos.youtube;fillColor=#FF2626;gradientColor=#B5171F" parent="1" vertex="1">
          <mxGeometry x="177" y="316.5" width="90" height="40" as="geometry" />
        </mxCell>
        <mxCell id="xgTr8H7QCqZXY7w2fLcb-19" value="" style="endArrow=classic;html=1;rounded=0;entryX=0;entryY=0.5;entryDx=0;entryDy=0;entryPerimeter=0;" parent="1" source="xgTr8H7QCqZXY7w2fLcb-18" target="xgTr8H7QCqZXY7w2fLcb-4" edge="1">
          <mxGeometry width="50" height="50" relative="1" as="geometry">
            <mxPoint x="345" y="337" as="sourcePoint" />
            <mxPoint x="405" y="337" as="targetPoint" />
          </mxGeometry>
        </mxCell>
        <mxCell id="xgTr8H7QCqZXY7w2fLcb-21" value="googleApiClient" style="text;html=1;align=center;verticalAlign=middle;resizable=0;points=[];autosize=1;strokeColor=none;fillColor=none;" parent="1" vertex="1">
          <mxGeometry x="270" y="308" width="110" height="30" as="geometry" />
        </mxCell>
        <mxCell id="xgTr8H7QCqZXY7w2fLcb-23" value="" style="endArrow=classic;html=1;rounded=0;entryX=0;entryY=0.5;entryDx=0;entryDy=0;entryPerimeter=0;exitX=1;exitY=0.5;exitDx=0;exitDy=0;exitPerimeter=0;" parent="1" source="xgTr8H7QCqZXY7w2fLcb-4" target="xgTr8H7QCqZXY7w2fLcb-1" edge="1">
          <mxGeometry width="50" height="50" relative="1" as="geometry">
            <mxPoint x="469" y="269" as="sourcePoint" />
            <mxPoint x="617" y="269" as="targetPoint" />
          </mxGeometry>
        </mxCell>
        <mxCell id="xgTr8H7QCqZXY7w2fLcb-24" value="Extractor(upload)" style="text;html=1;align=center;verticalAlign=middle;resizable=0;points=[];autosize=1;strokeColor=none;fillColor=none;" parent="1" vertex="1">
          <mxGeometry x="530" y="308" width="120" height="30" as="geometry" />
        </mxCell>
        <mxCell id="xgTr8H7QCqZXY7w2fLcb-25" value="" style="endArrow=classic;startArrow=classic;html=1;rounded=0;exitX=1.045;exitY=0.579;exitDx=0;exitDy=0;exitPerimeter=0;entryX=0.5;entryY=1;entryDx=0;entryDy=0;entryPerimeter=0;" parent="1" source="xgTr8H7QCqZXY7w2fLcb-2" target="xgTr8H7QCqZXY7w2fLcb-1" edge="1">
          <mxGeometry width="50" height="50" relative="1" as="geometry">
            <mxPoint x="630" y="544" as="sourcePoint" />
            <mxPoint x="723" y="490" as="targetPoint" />
            <Array as="points">
              <mxPoint x="723" y="527" />
            </Array>
          </mxGeometry>
        </mxCell>
        <mxCell id="xgTr8H7QCqZXY7w2fLcb-26" value="Transformation(fetch)" style="text;html=1;align=center;verticalAlign=middle;resizable=0;points=[];autosize=1;strokeColor=none;fillColor=none;" parent="1" vertex="1">
          <mxGeometry x="583.25" y="500" width="140" height="30" as="geometry" />
        </mxCell>
        <mxCell id="xgTr8H7QCqZXY7w2fLcb-27" value="Intermediate(upload)" style="text;html=1;align=center;verticalAlign=middle;resizable=0;points=[];autosize=1;strokeColor=none;fillColor=none;" parent="1" vertex="1">
          <mxGeometry x="588.25" y="530" width="130" height="30" as="geometry" />
        </mxCell>
        <mxCell id="xgTr8H7QCqZXY7w2fLcb-29" value="&lt;b&gt;&lt;u&gt;Data Extractor and Transformer&lt;/u&gt;&lt;/b&gt;" style="text;html=1;align=center;verticalAlign=middle;resizable=0;points=[];autosize=1;strokeColor=none;fillColor=none;" parent="1" vertex="1">
          <mxGeometry x="285" y="8" width="200" height="30" as="geometry" />
        </mxCell>
        <mxCell id="xgTr8H7QCqZXY7w2fLcb-30" value="" style="endArrow=classic;startArrow=classic;html=1;rounded=0;entryX=0.5;entryY=1;entryDx=0;entryDy=0;entryPerimeter=0;exitX=0.5;exitY=0;exitDx=0;exitDy=0;" parent="1" source="xgTr8H7QCqZXY7w2fLcb-17" target="xgTr8H7QCqZXY7w2fLcb-5" edge="1">
          <mxGeometry width="50" height="50" relative="1" as="geometry">
            <mxPoint x="725" y="-60" as="sourcePoint" />
            <mxPoint x="595" y="90" as="targetPoint" />
          </mxGeometry>
        </mxCell>
        <mxCell id="xgTr8H7QCqZXY7w2fLcb-32" value="" style="endArrow=classic;startArrow=classic;html=1;rounded=0;entryX=0.5;entryY=1;entryDx=0;entryDy=0;entryPerimeter=0;exitX=0.75;exitY=0;exitDx=0;exitDy=0;" parent="1" source="xgTr8H7QCqZXY7w2fLcb-17" target="xgTr8H7QCqZXY7w2fLcb-14" edge="1">
          <mxGeometry width="50" height="50" relative="1" as="geometry">
            <mxPoint x="580" y="50" as="sourcePoint" />
            <mxPoint x="580" y="-162" as="targetPoint" />
          </mxGeometry>
        </mxCell>
        <mxCell id="xgTr8H7QCqZXY7w2fLcb-33" value="" style="endArrow=classic;html=1;rounded=0;entryX=0;entryY=0.5;entryDx=0;entryDy=0;entryPerimeter=0;exitX=1;exitY=0.5;exitDx=0;exitDy=0;" parent="1" source="xgTr8H7QCqZXY7w2fLcb-17" target="xgTr8H7QCqZXY7w2fLcb-6" edge="1">
          <mxGeometry width="50" height="50" relative="1" as="geometry">
            <mxPoint x="995" y="310" as="sourcePoint" />
            <mxPoint x="1045" y="260" as="targetPoint" />
          </mxGeometry>
        </mxCell>
        <mxCell id="xgTr8H7QCqZXY7w2fLcb-35" value="" style="rounded=1;whiteSpace=wrap;html=1;fillColor=none;" parent="1" vertex="1">
          <mxGeometry x="1190" y="161.25" width="180" height="440" as="geometry" />
        </mxCell>
        <mxCell id="xgTr8H7QCqZXY7w2fLcb-36" value="&lt;b&gt;&lt;u&gt;Analysis&lt;/u&gt;&lt;/b&gt;" style="text;html=1;align=center;verticalAlign=middle;resizable=0;points=[];autosize=1;strokeColor=none;fillColor=none;" parent="1" vertex="1">
          <mxGeometry x="1233" y="140" width="70" height="30" as="geometry" />
        </mxCell>
        <mxCell id="xgTr8H7QCqZXY7w2fLcb-38" value="" style="outlineConnect=0;dashed=0;verticalLabelPosition=bottom;verticalAlign=top;align=center;html=1;shape=mxgraph.aws3.step_functions;fillColor=#D9A741;gradientColor=none;" parent="1" vertex="1">
          <mxGeometry x="273.25" y="590" width="93.75" height="95" as="geometry" />
        </mxCell>
        <mxCell id="xgTr8H7QCqZXY7w2fLcb-39" value="Step Function" style="text;html=1;align=center;verticalAlign=middle;resizable=0;points=[];autosize=1;strokeColor=none;fillColor=none;" parent="1" vertex="1">
          <mxGeometry x="270" y="690" width="100" height="30" as="geometry" />
        </mxCell>
        <mxCell id="xgTr8H7QCqZXY7w2fLcb-44" value="&lt;b&gt;&lt;u&gt;&lt;font style=&quot;font-size: 20px;&quot;&gt;YouTube Data Pipeline Architecture&lt;/font&gt;&lt;/u&gt;&lt;/b&gt;" style="text;html=1;align=center;verticalAlign=middle;resizable=0;points=[];autosize=1;strokeColor=none;fillColor=none;" parent="1" vertex="1">
          <mxGeometry x="-50" y="-240" width="360" height="40" as="geometry" />
        </mxCell>
        <mxCell id="xgTr8H7QCqZXY7w2fLcb-46" value="" style="endArrow=classic;html=1;rounded=0;exitX=0.5;exitY=0;exitDx=0;exitDy=0;exitPerimeter=0;entryX=0;entryY=0.5;entryDx=0;entryDy=0;entryPerimeter=0;" parent="1" source="xgTr8H7QCqZXY7w2fLcb-38" target="xgTr8H7QCqZXY7w2fLcb-2" edge="1">
          <mxGeometry width="50" height="50" relative="1" as="geometry">
            <mxPoint x="310.75" y="549.9999999999995" as="sourcePoint" />
            <mxPoint x="450" y="570" as="targetPoint" />
            <Array as="points">
              <mxPoint x="320" y="520" />
            </Array>
          </mxGeometry>
        </mxCell>
        <mxCell id="xgTr8H7QCqZXY7w2fLcb-47" value="" style="endArrow=classic;html=1;rounded=0;entryX=0.5;entryY=1;entryDx=0;entryDy=0;entryPerimeter=0;" parent="1" target="xgTr8H7QCqZXY7w2fLcb-4" edge="1">
          <mxGeometry width="50" height="50" relative="1" as="geometry">
            <mxPoint x="320" y="520" as="sourcePoint" />
            <mxPoint x="1140" y="390" as="targetPoint" />
            <Array as="points">
              <mxPoint x="320" y="440" />
              <mxPoint x="453" y="440" />
            </Array>
          </mxGeometry>
        </mxCell>
        <mxCell id="xgTr8H7QCqZXY7w2fLcb-48" value="" style="sketch=0;points=[[0,0,0],[0.25,0,0],[0.5,0,0],[0.75,0,0],[1,0,0],[0,1,0],[0.25,1,0],[0.5,1,0],[0.75,1,0],[1,1,0],[0,0.25,0],[0,0.5,0],[0,0.75,0],[1,0.25,0],[1,0.5,0],[1,0.75,0]];outlineConnect=0;fontColor=#232F3E;fillColor=#E7157B;strokeColor=#ffffff;dashed=0;verticalLabelPosition=bottom;verticalAlign=top;align=center;html=1;fontSize=12;fontStyle=0;aspect=fixed;shape=mxgraph.aws4.resourceIcon;resIcon=mxgraph.aws4.eventbridge;" parent="1" vertex="1">
          <mxGeometry x="80" y="440" width="78" height="78" as="geometry" />
        </mxCell>
        <mxCell id="xgTr8H7QCqZXY7w2fLcb-50" value="" style="endArrow=classic;html=1;rounded=0;exitX=0.5;exitY=1;exitDx=0;exitDy=0;exitPerimeter=0;entryX=0.13;entryY=0.5;entryDx=0;entryDy=0;entryPerimeter=0;" parent="1" source="xgTr8H7QCqZXY7w2fLcb-48" target="xgTr8H7QCqZXY7w2fLcb-38" edge="1">
          <mxGeometry width="50" height="50" relative="1" as="geometry">
            <mxPoint x="50" y="520" as="sourcePoint" />
            <mxPoint x="110" y="610" as="targetPoint" />
            <Array as="points">
              <mxPoint x="119" y="640" />
            </Array>
          </mxGeometry>
        </mxCell>
        <mxCell id="xgTr8H7QCqZXY7w2fLcb-51" value="Event Bridge" style="text;html=1;align=center;verticalAlign=middle;resizable=0;points=[];autosize=1;strokeColor=none;fillColor=none;" parent="1" vertex="1">
          <mxGeometry x="24" y="404.5" width="90" height="30" as="geometry" />
        </mxCell>
        <mxCell id="najQqOkHjPCmabSlhx7Q-1" value="&lt;font color=&quot;#e32400&quot;&gt;1&lt;/font&gt;" style="text;html=1;align=center;verticalAlign=middle;resizable=0;points=[];autosize=1;strokeColor=none;fillColor=none;" vertex="1" parent="1">
          <mxGeometry x="100" y="519.75" width="30" height="30" as="geometry" />
        </mxCell>
        <mxCell id="najQqOkHjPCmabSlhx7Q-2" value="&lt;font color=&quot;#e32400&quot;&gt;2&lt;/font&gt;" style="text;html=1;align=center;verticalAlign=middle;resizable=0;points=[];autosize=1;strokeColor=none;fillColor=none;" vertex="1" parent="1">
          <mxGeometry x="310" y="410" width="30" height="30" as="geometry" />
        </mxCell>
        <mxCell id="najQqOkHjPCmabSlhx7Q-3" value="&lt;font color=&quot;#e32400&quot;&gt;3&lt;/font&gt;" style="text;html=1;align=center;verticalAlign=middle;resizable=0;points=[];autosize=1;strokeColor=none;fillColor=none;" vertex="1" parent="1">
          <mxGeometry x="380" y="297.75" width="30" height="30" as="geometry" />
        </mxCell>
        <mxCell id="najQqOkHjPCmabSlhx7Q-4" value="&lt;font color=&quot;#e32400&quot;&gt;4&lt;/font&gt;" style="text;html=1;align=center;verticalAlign=middle;resizable=0;points=[];autosize=1;strokeColor=none;fillColor=none;" vertex="1" parent="1">
          <mxGeometry x="510" y="297.75" width="30" height="30" as="geometry" />
        </mxCell>
        <mxCell id="najQqOkHjPCmabSlhx7Q-5" value="&lt;font color=&quot;#e32400&quot;&gt;5&lt;/font&gt;" style="text;html=1;align=center;verticalAlign=middle;resizable=0;points=[];autosize=1;strokeColor=none;fillColor=none;" vertex="1" parent="1">
          <mxGeometry x="410" y="518" width="30" height="30" as="geometry" />
        </mxCell>
        <mxCell id="najQqOkHjPCmabSlhx7Q-6" value="&lt;font color=&quot;#e32400&quot;&gt;6&lt;/font&gt;" style="text;html=1;align=center;verticalAlign=middle;resizable=0;points=[];autosize=1;strokeColor=none;fillColor=none;" vertex="1" parent="1">
          <mxGeometry x="683.25" y="519.75" width="30" height="30" as="geometry" />
        </mxCell>
        <mxCell id="najQqOkHjPCmabSlhx7Q-7" value="&lt;font color=&quot;#e32400&quot;&gt;&lt;b&gt;9&lt;/b&gt;&lt;/font&gt;" style="text;html=1;align=center;verticalAlign=middle;resizable=0;points=[];autosize=1;strokeColor=none;fillColor=none;" vertex="1" parent="1">
          <mxGeometry x="713.25" y="190" width="30" height="30" as="geometry" />
        </mxCell>
        <mxCell id="najQqOkHjPCmabSlhx7Q-8" value="&lt;font color=&quot;#e32400&quot;&gt;8&lt;/font&gt;" style="text;html=1;align=center;verticalAlign=middle;resizable=0;points=[];autosize=1;strokeColor=none;fillColor=none;" vertex="1" parent="1">
          <mxGeometry x="877" y="120" width="30" height="30" as="geometry" />
        </mxCell>
        <mxCell id="najQqOkHjPCmabSlhx7Q-9" value="Logs" style="text;html=1;align=center;verticalAlign=middle;resizable=0;points=[];autosize=1;strokeColor=none;fillColor=none;rotation=90;" vertex="1" parent="1">
          <mxGeometry x="495" y="-30" width="50" height="30" as="geometry" />
        </mxCell>
        <mxCell id="najQqOkHjPCmabSlhx7Q-12" value="" style="sketch=0;outlineConnect=0;fontColor=#232F3E;gradientColor=none;fillColor=#8C4FFF;strokeColor=none;dashed=0;verticalLabelPosition=bottom;verticalAlign=top;align=center;html=1;fontSize=12;fontStyle=0;aspect=fixed;pointerEvents=1;shape=mxgraph.aws4.glue_crawlers;" vertex="1" parent="1">
          <mxGeometry x="860" y="200" width="78" height="78" as="geometry" />
        </mxCell>
        <mxCell id="najQqOkHjPCmabSlhx7Q-13" value="" style="endArrow=classic;html=1;rounded=0;entryX=1;entryY=0.5;entryDx=0;entryDy=0;entryPerimeter=0;" edge="1" parent="1" source="najQqOkHjPCmabSlhx7Q-12" target="xgTr8H7QCqZXY7w2fLcb-1">
          <mxGeometry width="50" height="50" relative="1" as="geometry">
            <mxPoint x="920" y="350" as="sourcePoint" />
            <mxPoint x="900" y="346.5" as="targetPoint" />
            <Array as="points">
              <mxPoint x="899" y="337" />
            </Array>
          </mxGeometry>
        </mxCell>
        <mxCell id="najQqOkHjPCmabSlhx7Q-14" value="crawl" style="text;html=1;align=center;verticalAlign=middle;resizable=0;points=[];autosize=1;strokeColor=none;fillColor=none;" vertex="1" parent="1">
          <mxGeometry x="827" y="331" width="50" height="30" as="geometry" />
        </mxCell>
        <mxCell id="najQqOkHjPCmabSlhx7Q-15" value="Glue crawler" style="text;html=1;align=center;verticalAlign=middle;resizable=0;points=[];autosize=1;strokeColor=none;fillColor=none;rotation=90;" vertex="1" parent="1">
          <mxGeometry x="910" y="220" width="90" height="30" as="geometry" />
        </mxCell>
        <mxCell id="najQqOkHjPCmabSlhx7Q-16" value="" style="endArrow=classic;html=1;rounded=0;" edge="1" parent="1" source="najQqOkHjPCmabSlhx7Q-12" target="xgTr8H7QCqZXY7w2fLcb-3">
          <mxGeometry width="50" height="50" relative="1" as="geometry">
            <mxPoint x="910" y="160" as="sourcePoint" />
            <mxPoint x="960" y="80" as="targetPoint" />
            <Array as="points">
              <mxPoint x="900" y="120" />
            </Array>
          </mxGeometry>
        </mxCell>
        <mxCell id="najQqOkHjPCmabSlhx7Q-17" value="Catalog" style="text;html=1;align=center;verticalAlign=middle;resizable=0;points=[];autosize=1;strokeColor=none;fillColor=none;" vertex="1" parent="1">
          <mxGeometry x="840" y="98" width="60" height="30" as="geometry" />
        </mxCell>
        <mxCell id="najQqOkHjPCmabSlhx7Q-18" value="&lt;font color=&quot;#e32400&quot;&gt;7&lt;/font&gt;" style="text;html=1;align=center;verticalAlign=middle;resizable=0;points=[];autosize=1;strokeColor=none;fillColor=none;" vertex="1" parent="1">
          <mxGeometry x="870" y="308" width="30" height="30" as="geometry" />
        </mxCell>
        <mxCell id="najQqOkHjPCmabSlhx7Q-19" value="Load" style="text;html=1;align=center;verticalAlign=middle;resizable=0;points=[];autosize=1;strokeColor=none;fillColor=none;rotation=90;" vertex="1" parent="1">
          <mxGeometry x="683.25" y="200" width="50" height="30" as="geometry" />
        </mxCell>
        <mxCell id="najQqOkHjPCmabSlhx7Q-20" value="" style="endArrow=classic;html=1;rounded=0;entryX=0.71;entryY=0.186;entryDx=0;entryDy=0;entryPerimeter=0;exitX=0.71;exitY=0.371;exitDx=0;exitDy=0;exitPerimeter=0;" edge="1" parent="1" source="xgTr8H7QCqZXY7w2fLcb-17" target="xgTr8H7QCqZXY7w2fLcb-17">
          <mxGeometry width="50" height="50" relative="1" as="geometry">
            <mxPoint x="670" y="290" as="sourcePoint" />
            <mxPoint x="720" y="240" as="targetPoint" />
          </mxGeometry>
        </mxCell>
        <mxCell id="najQqOkHjPCmabSlhx7Q-21" value="" style="sketch=0;outlineConnect=0;fontColor=#232F3E;gradientColor=none;fillColor=#232F3D;strokeColor=none;dashed=0;verticalLabelPosition=bottom;verticalAlign=top;align=center;html=1;fontSize=12;fontStyle=0;aspect=fixed;pointerEvents=1;shape=mxgraph.aws4.users;" vertex="1" parent="1">
          <mxGeometry x="1510" y="341" width="78" height="78" as="geometry" />
        </mxCell>
        <mxCell id="najQqOkHjPCmabSlhx7Q-22" value="" style="endArrow=classic;html=1;rounded=0;exitX=1;exitY=0.5;exitDx=0;exitDy=0;" edge="1" parent="1" source="xgTr8H7QCqZXY7w2fLcb-35" target="najQqOkHjPCmabSlhx7Q-21">
          <mxGeometry width="50" height="50" relative="1" as="geometry">
            <mxPoint x="1080" y="290" as="sourcePoint" />
            <mxPoint x="1130" y="240" as="targetPoint" />
          </mxGeometry>
        </mxCell>
        <mxCell id="najQqOkHjPCmabSlhx7Q-23" value="user" style="text;html=1;align=center;verticalAlign=middle;resizable=0;points=[];autosize=1;strokeColor=none;fillColor=none;" vertex="1" parent="1">
          <mxGeometry x="1525" y="418" width="50" height="30" as="geometry" />
        </mxCell>
      </root>
    </mxGraphModel>
  </diagram>
</mxfile>
